<svg width="22" height="18" viewBox="0 0 22 18" fill="none" xmlns="http://www.w3.org/2000/svg">
<path d="M3.5 12.5V6C3.5 3.51472 5.51472 1.5 8 1.5C10.4853 1.5 12.5 3.51472 12.5 6V13C12.5 14.3807 13.6193 15.5 15 15.5C16.3807 15.5 17.5 14.3807 17.5 13V6.32929C16.3348 5.91746 15.5 4.80622 15.5 3.5C15.5 1.84315 16.8431 0.5 18.5 0.5C20.1569 0.5 21.5 1.84315 21.5 3.5C21.5 4.80622 20.6652 5.91746 19.5 6.32929V13C19.5 15.4853 17.4853 17.5 15 17.5C12.5147 17.5 10.5 15.4853 10.5 13V6C10.5 4.61929 9.38071 3.5 8 3.5C6.61929 3.5 5.5 4.61929 5.5 6V12.5H8.5L4.5 17.5L0.5 12.5H3.5ZM18.5 4.5C19.0523 4.5 19.5 4.05228 19.5 3.5C19.5 2.94772 19.0523 2.5 18.5 2.5C17.9477 2.5 17.5 2.94772 17.5 3.5C17.5 4.05228 17.9477 4.5 18.5 4.5Z" fill="#374151"/>
</svg>
