<svg width="30" height="28" viewBox="0 0 30 28" fill="none" xmlns="http://www.w3.org/2000/svg">
<path d="M23.1566 19.8801C23.1551 20.057 23.1192 20.232 23.0511 20.3949C22.983 20.5578 22.8838 20.7054 22.7594 20.8295C22.635 20.9535 22.4878 21.0515 22.326 21.1178C22.1643 21.1841 21.9913 21.2174 21.8168 21.2159C21.6371 21.2222 21.4579 21.1914 21.2902 21.1255C21.1225 21.0596 20.9697 20.9599 20.841 20.8324C20.7123 20.7049 20.6104 20.5522 20.5415 20.3837C20.4726 20.2151 20.4381 20.0342 20.44 19.8517C20.442 19.6692 20.4803 19.489 20.5528 19.322C20.6253 19.155 20.7304 19.0047 20.8618 18.88C20.9932 18.7554 21.1481 18.659 21.3171 18.5968C21.4862 18.5346 21.666 18.5078 21.8456 18.518C22.0201 18.5191 22.1927 18.5554 22.3533 18.6246C22.5139 18.6939 22.6594 18.7947 22.7813 18.9214C22.9033 19.0481 22.9992 19.1981 23.0636 19.3626C23.128 19.5272 23.1596 19.703 23.1566 19.8801Z" fill="#374151"/>
<path d="M21.8682 16.873C21.4805 16.8688 21.0957 16.9421 20.7359 17.0887C20.3761 17.2354 20.0482 17.4525 19.7711 17.7276C19.494 18.0028 19.273 18.3306 19.1208 18.6925C18.9686 19.0543 18.8881 19.4429 18.884 19.8363C18.8798 20.2297 18.9521 20.62 19.0966 20.985C19.2412 21.3501 19.4552 21.6827 19.7264 21.9638C19.9976 22.2449 20.3208 22.4691 20.6774 22.6235C21.0341 22.7779 21.4172 22.8596 21.805 22.8638C22.588 22.8723 23.3424 22.5649 23.902 22.0092C24.4617 21.4534 24.7808 20.6949 24.7892 19.9005C24.7976 19.106 24.4946 18.3408 23.9468 17.773C23.399 17.2052 22.6513 16.8815 21.8682 16.873ZM21.8136 21.6884C21.5719 21.6953 21.3313 21.6527 21.1062 21.563C20.8811 21.4734 20.6762 21.3385 20.5037 21.1666C20.3312 20.9947 20.1946 20.7892 20.1023 20.5625C20.0099 20.3358 19.9636 20.0925 19.9661 19.8472C19.9686 19.6019 20.0199 19.3597 20.1169 19.135C20.2139 18.9102 20.3546 18.7077 20.5306 18.5395C20.7066 18.3712 20.9143 18.2408 21.1411 18.1559C21.368 18.071 21.6094 18.0335 21.851 18.0455C22.3149 18.0686 22.7521 18.2731 23.0707 18.6161C23.3892 18.9591 23.5645 19.4139 23.5597 19.8852C23.5548 20.3564 23.3703 20.8075 23.0447 21.1437C22.7192 21.4799 22.2779 21.6751 21.8136 21.6884Z" fill="#374151"/>
<path d="M6.15661 16.8672C6.73161 16.8672 7.11686 17.1589 7.04498 17.7655C6.87248 19.2005 6.89836 20.5684 7.76373 21.8139C7.97648 22.1055 7.74073 22.2193 7.44748 22.1755C5.84323 21.948 3.73873 19.9326 3.42248 18.3197C3.31036 17.7364 3.48573 17.3222 4.08373 17.2026C4.75936 17.0655 5.44936 16.978 6.15661 16.8672Z" fill="#374151"/>
<path d="M11.9609 17.7653C11.8085 19.2236 11.8172 20.5799 12.6768 21.802C12.8694 22.0761 12.6768 22.2249 12.3634 22.1753C10.7735 21.9332 8.69204 19.9616 8.35854 18.3749C8.21766 17.6924 8.44766 17.3074 9.11466 17.182C9.72416 17.0682 10.3337 16.9661 10.9489 16.8903C11.6533 16.8116 11.9782 17.1266 11.9609 17.7653Z" fill="#374151"/>
<path d="M16.8197 18.7191C16.7794 19.7604 16.9088 20.7608 17.5154 21.6358C17.6189 21.7875 17.7455 21.9275 17.5988 22.1287C17.5039 22.2512 17.366 22.2016 17.2452 22.1579C15.5202 21.5162 14.0453 20.5683 13.3927 18.6987C13.0419 17.6954 13.2806 17.3045 14.3156 17.1383C14.7727 17.0654 15.2298 16.9808 15.6898 16.9166C16.6242 16.7825 16.9318 17.0741 16.8628 18.0162L16.8197 18.7191Z" fill="#374151"/>
<path d="M6.89248 22.6712C6.50738 22.8196 6.09664 22.8873 5.68504 22.8702C5.27344 22.8532 4.86951 22.7517 4.4976 22.572C3.93985 22.3387 3.89673 21.8633 4.10948 21.3266C4.21873 21.0349 4.32798 21.0349 4.53785 21.2187C5.18473 21.8195 5.97535 22.1899 6.89248 22.6712Z" fill="#374151"/>
<path d="M11.7857 22.6714C11.3888 22.8244 10.9644 22.8901 10.5406 22.8639C10.1167 22.8378 9.70327 22.7204 9.32759 22.5197C8.88484 22.3155 8.80434 21.6447 9.08034 21.2276C9.18384 21.0759 9.27584 21.0614 9.36784 21.1576C10.055 21.7934 10.8945 22.1668 11.7857 22.6714Z" fill="#374151"/>
<path d="M16.7568 22.6595C16.3645 22.8156 15.9443 22.8864 15.5233 22.8673C15.1024 22.8482 14.6901 22.7396 14.3131 22.5487C13.7381 22.2949 13.7869 21.7874 13.9796 21.2828C14.0744 21.0378 14.2182 21.0583 14.3821 21.2128C15.0289 21.8224 15.8167 22.1987 16.7568 22.6595Z" fill="#374151"/>
<path d="M25.4965 13.1716C25.1136 13.143 24.7293 13.143 24.3465 13.1716C24.059 13.1949 23.9037 13.1337 23.8261 12.9674V9.33326C23.8731 9.23959 23.9392 9.15711 24.02 9.09125C24.1008 9.02539 24.1944 8.97765 24.2947 8.95118C24.8956 8.71785 25.4821 8.44076 26.0715 8.17535C26.4625 7.99743 26.6781 7.73785 26.566 7.25076C26.3446 6.28243 25.9909 6.0841 25.0853 6.47493C21.1907 8.17049 17.3017 9.86701 13.4186 11.5645L11.6131 12.3549L11.6734 12.5533C12.7803 12.5533 13.8872 12.527 14.9912 12.5533C15.6846 12.5757 16.3737 12.4339 17.0037 12.1391C18.8638 11.2962 20.7412 10.5233 22.6099 9.67451C22.7435 9.60265 22.8904 9.55993 23.0412 9.5491V13.0812C22.8604 13.1613 22.663 13.1953 22.4662 13.1803C17.9036 13.1483 13.3381 13.1628 8.77257 13.1628C7.3552 13.1628 5.93782 13.1628 4.51757 13.1628C4.37426 13.1498 4.22985 13.1674 4.0936 13.2143C3.95736 13.2613 3.8323 13.3366 3.72645 13.4355C3.62059 13.5343 3.53629 13.6546 3.47894 13.7884C3.4216 13.9223 3.39247 14.0669 3.39345 14.2128C3.37488 14.3561 3.38617 14.5017 3.42657 14.6403C3.46698 14.7789 3.5356 14.9073 3.62801 15.0173C3.72041 15.1272 3.83455 15.2163 3.96302 15.2787C4.09149 15.3411 4.23144 15.3754 4.37382 15.3795C4.57453 15.3712 4.77148 15.4364 4.9287 15.5633V16.4383H5.70207V15.4728C5.84504 15.4322 5.99393 15.4174 6.14195 15.4291C7.19707 15.4495 8.25507 15.4437 9.30445 15.4291C9.4434 15.4185 9.58314 15.4303 9.71845 15.4641V16.4733H10.4918V15.5312C10.6409 15.4424 10.8149 15.4065 10.9863 15.4291C12.0961 15.4466 13.2058 15.4495 14.3127 15.4291C14.4346 15.4196 14.5571 15.4365 14.6721 15.4787V16.4762H15.4454V15.5195C15.6059 15.44 15.7855 15.4086 15.9629 15.4291C17.6132 15.4437 19.2634 15.4291 20.9137 15.4291C21.1086 15.3971 21.3084 15.4235 21.4887 15.5049V16.3333H22.2621V15.4583C22.4217 15.4175 22.5871 15.4056 22.7508 15.4233C23.6536 15.4233 24.5563 15.4437 25.4591 15.4233C25.6081 15.4325 25.7574 15.4104 25.8976 15.3584C26.0378 15.3064 26.1659 15.2256 26.2739 15.1209C26.3819 15.0163 26.4674 14.8902 26.5251 14.7505C26.5827 14.6108 26.6113 14.4605 26.6091 14.3091C26.6177 13.6499 26.2123 13.2183 25.4965 13.1716Z" fill="#374151"/>
<path d="M23.1566 19.8801C23.1551 20.057 23.1192 20.232 23.0511 20.3949C22.983 20.5578 22.8838 20.7054 22.7594 20.8295C22.635 20.9535 22.4878 21.0515 22.326 21.1178C22.1643 21.1841 21.9913 21.2174 21.8168 21.2159C21.6371 21.2222 21.4579 21.1914 21.2902 21.1255C21.1225 21.0596 20.9697 20.9599 20.841 20.8324C20.7123 20.7049 20.6104 20.5522 20.5415 20.3837C20.4726 20.2151 20.4381 20.0342 20.44 19.8517C20.442 19.6692 20.4803 19.489 20.5528 19.322C20.6253 19.155 20.7304 19.0047 20.8618 18.88C20.9932 18.7554 21.1481 18.659 21.3171 18.5968C21.4862 18.5346 21.666 18.5078 21.8456 18.518C22.0201 18.5191 22.1927 18.5554 22.3533 18.6246C22.5139 18.6939 22.6594 18.7947 22.7813 18.9214C22.9033 19.0481 22.9992 19.1981 23.0636 19.3626C23.128 19.5272 23.1596 19.703 23.1566 19.8801Z" fill="#374151"/>
<path d="M23.1566 19.8801C23.1551 20.057 23.1192 20.232 23.0511 20.3949C22.983 20.5578 22.8838 20.7054 22.7594 20.8295C22.635 20.9535 22.4878 21.0515 22.326 21.1178C22.1643 21.1841 21.9913 21.2174 21.8168 21.2159C21.6371 21.2222 21.4579 21.1914 21.2902 21.1255C21.1225 21.0596 20.9697 20.9599 20.841 20.8324C20.7123 20.7049 20.6104 20.5522 20.5415 20.3837C20.4726 20.2151 20.4381 20.0342 20.44 19.8517C20.442 19.6692 20.4803 19.489 20.5528 19.322C20.6253 19.155 20.7304 19.0047 20.8618 18.88C20.9932 18.7554 21.1481 18.659 21.3171 18.5968C21.4862 18.5346 21.666 18.5078 21.8456 18.518C22.0201 18.5191 22.1927 18.5554 22.3533 18.6246C22.5139 18.6939 22.6594 18.7947 22.7813 18.9214C22.9033 19.0481 22.9992 19.1981 23.0636 19.3626C23.128 19.5272 23.1596 19.703 23.1566 19.8801Z" fill="#374151"/>
</svg>
