<svg width="24" height="24" viewBox="0 0 24 24" fill="none" xmlns="http://www.w3.org/2000/svg">
<path d="M21.0955 7.58336C20.6639 7.56986 20.2297 7.56446 19.7955 7.56446C16.7736 7.56304 13.7604 7.89795 10.8073 8.56346C10.1746 8.70746 9.54801 8.86586 8.92747 9.03866C7.70374 9.37886 6.50081 9.77396 5.31867 10.224C4.84807 10.4049 4.38267 10.5912 3.91987 10.7883C3.78467 10.845 3.65987 10.9017 3.51947 10.9638C2.99947 11.1879 2.47947 11.4282 1.95947 11.6766V22.4901H23.0195V7.69136C22.3799 7.64006 21.7455 7.60496 21.0955 7.58336ZM21.0955 20.5164H14.3849C16.5242 19.2232 18.7699 18.1299 21.0955 17.2494V20.5164ZM21.0955 14.9328C17.5441 16.3156 14.1905 18.194 11.1271 20.5164H3.80807L3.91987 20.4381C9.08255 16.8538 14.9503 14.5108 21.0955 13.5801V14.9328ZM21.0955 11.5794C14.9947 12.3353 9.12994 14.4806 3.91987 17.8623V12.9348C4.36967 12.7431 4.82207 12.5622 5.27707 12.3948C9.92532 10.6153 14.8415 9.7093 19.7955 9.71906C20.2297 9.71906 20.6639 9.71906 21.0955 9.74066V11.5794Z" fill="#374151"/>
<path d="M7.56 4.31909C6.90593 4.3195 6.26176 4.48511 5.68306 4.80165C5.10436 5.1182 4.60848 5.57617 4.2382 6.13608C3.86792 6.69599 3.63435 7.34103 3.55763 8.01557C3.4809 8.69011 3.56333 9.37391 3.7978 10.008L4.3178 9.78659C4.7104 9.61919 5.0978 9.45989 5.5008 9.30599C5.40688 9.04713 5.3593 8.77262 5.3604 8.49599C5.36892 7.94502 5.56806 7.41561 5.92142 7.00452C6.27479 6.59343 6.7588 6.3281 7.28501 6.25701C7.81121 6.18592 8.34448 6.31382 8.78738 6.61734C9.23027 6.92085 9.55321 7.37972 9.6972 7.91009C10.2848 7.75169 10.875 7.60589 11.4678 7.47269C11.2473 6.57038 10.7432 5.77024 10.0354 5.19902C9.32756 4.6278 8.45644 4.31814 7.56 4.31909Z" fill="#374151"/>
<path d="M6.06982 2.52285L4.60596 3.08276L5.11099 4.50665L6.57485 3.94674L6.06982 2.52285Z" fill="#374151"/>
<path d="M10.2286 3.11027L8.78076 2.50708L8.2367 3.91537L9.68453 4.51856L10.2286 3.11027Z" fill="#374151"/>
<path d="M2.76975 4.57571L1.98975 5.98511L3.26099 6.74381L4.04099 5.33441L2.76975 4.57571Z" fill="#374151"/>
</svg>
