<svg width="20" height="23" viewBox="0 0 20 23" fill="none" xmlns="http://www.w3.org/2000/svg">
<path d="M7.97487 7.97487C9.3417 6.60804 9.3417 4.39196 7.97487 3.02513C6.60804 1.65829 4.39196 1.65829 3.02513 3.02513C1.65829 4.39196 1.65829 6.60804 3.02513 7.97487L5.5 10.4497L7.97487 7.97487ZM5.5 13.2782L1.61091 9.3891C-0.53697 7.2412 -0.53697 3.7588 1.61091 1.61091C3.7588 -0.53697 7.2412 -0.53697 9.3891 1.61091C11.537 3.7588 11.537 7.2412 9.3891 9.3891L5.5 13.2782ZM5.5 7C4.67157 7 4 6.32843 4 5.5C4 4.67157 4.67157 4 5.5 4C6.32843 4 7 4.67157 7 5.5C7 6.32843 6.32843 7 5.5 7ZM14.5 19.4497L16.9749 16.9749C18.3417 15.608 18.3417 13.392 16.9749 12.0251C15.608 10.6583 13.392 10.6583 12.0251 12.0251C10.6583 13.392 10.6583 15.608 12.0251 16.9749L14.5 19.4497ZM18.3891 18.3891L14.5 22.2782L10.6109 18.3891C8.463 16.2412 8.463 12.7588 10.6109 10.6109C12.7588 8.46303 16.2412 8.46303 18.3891 10.6109C20.537 12.7588 20.537 16.2412 18.3891 18.3891ZM14.5 16C13.6716 16 13 15.3284 13 14.5C13 13.6716 13.6716 13 14.5 13C15.3284 13 16 13.6716 16 14.5C16 15.3284 15.3284 16 14.5 16Z" fill="#374151"/>
</svg>
