<svg width="84" height="84" viewBox="0 0 84 84" fill="none" xmlns="http://www.w3.org/2000/svg">
<path d="M42.0002 0.333252C65.0118 0.333252 83.6668 18.988 83.6668 41.9999C83.6668 65.0116 65.0118 83.6666 42.0002 83.6666C18.9883 83.6666 0.333496 65.0116 0.333496 41.9999C0.333496 18.988 18.9883 0.333252 42.0002 0.333252ZM25.3335 46.1666L8.9252 46.1708C10.807 61.2466 22.757 73.1953 37.8335 75.0753V58.6666C30.93 58.6666 25.3335 53.0703 25.3335 46.1666ZM75.0752 46.1708L58.6668 46.1666C58.6668 53.0703 53.0706 58.6666 46.1668 58.6666L46.171 75.0749C61.2456 73.1933 73.1935 61.2453 75.0752 46.1708ZM50.3335 41.9999H33.6668V46.1666C33.6668 48.4678 35.5322 50.3333 37.8335 50.3333H46.1668C48.4681 50.3333 50.3335 48.4678 50.3335 46.1666V41.9999ZM42.0002 8.66659C25.0017 8.66659 10.975 21.3904 8.92471 37.8333H25.3335C25.3335 35.532 27.199 33.6666 29.5002 33.6666H54.5002C56.8014 33.6666 58.6668 35.532 58.6668 37.8333H75.0756C73.0252 21.3904 58.9985 8.66659 42.0002 8.66659Z" fill="#374151"/>
</svg>
