<svg width="20" height="21" viewBox="0 0 20 21" fill="none" xmlns="http://www.w3.org/2000/svg">
<path d="M7.95596 0.71304C9.28955 0.43388 10.6827 0.42507 12.0469 0.71029C12.2239 1.86984 12.9067 2.94136 14.0016 3.57347C15.0964 4.20557 16.3659 4.26128 17.4585 3.83474C18.3877 4.87362 19.0767 6.08447 19.5016 7.37896C18.5872 8.11202 18.0016 9.23844 18.0016 10.5016C18.0016 11.7656 18.5879 12.8926 19.5033 13.6256C19.292 14.266 19.0124 14.8946 18.6618 15.5016C18.3113 16.1087 17.9068 16.6651 17.4578 17.1683C16.3653 16.742 15.0962 16.7979 14.0016 17.4298C12.9076 18.0614 12.2249 19.1318 12.0472 20.2903C10.7137 20.5694 9.32065 20.5782 7.95638 20.293C7.77943 19.1335 7.09646 18.0619 6.00162 17.4298C4.90679 16.7977 3.63734 16.742 2.54467 17.1686C1.61552 16.1297 0.92661 14.9188 0.50159 13.6243C1.41607 12.8913 2.00163 11.7648 2.00163 10.5016C2.00163 9.23774 1.41539 8.11071 0.5 7.37768C0.71128 6.73726 0.99089 6.10873 1.34137 5.50167C1.69186 4.89461 2.09638 4.3382 2.54536 3.83501C3.63788 4.26125 4.90702 4.20544 6.00162 3.57347C7.09559 2.94186 7.77835 1.87154 7.95596 0.71304ZM10.0016 13.5016C11.6585 13.5016 13.0016 12.1585 13.0016 10.5016C13.0016 8.84484 11.6585 7.50167 10.0016 7.50167C8.34475 7.50167 7.00162 8.84484 7.00162 10.5016C7.00162 12.1585 8.34475 13.5016 10.0016 13.5016Z" fill="#374151"/>
</svg>
